<svg xmlns="http://www.w3.org/2000/svg" width="920" height="560" viewBox="0 0 920 560">
<rect width="100%" height="100%" fill="white"/>
<text x="82" y="26" font-family="Arial" font-size="18" font-weight="700">r64 LoRA Teacher: cumulative squared singular-value energy</text>
<line x1="82" y1="490.0" x2="740" y2="490.0" stroke="#e5e7eb" stroke-width="1"/>
<text x="72" y="494.0" text-anchor="end" font-family="Arial" font-size="12" fill="#374151">0.0</text>
<line x1="82" y1="400.4" x2="740" y2="400.4" stroke="#e5e7eb" stroke-width="1"/>
<text x="72" y="404.4" text-anchor="end" font-family="Arial" font-size="12" fill="#374151">0.2</text>
<line x1="82" y1="310.8" x2="740" y2="310.8" stroke="#e5e7eb" stroke-width="1"/>
<text x="72" y="314.8" text-anchor="end" font-family="Arial" font-size="12" fill="#374151">0.4</text>
<line x1="82" y1="221.2" x2="740" y2="221.2" stroke="#e5e7eb" stroke-width="1"/>
<text x="72" y="225.2" text-anchor="end" font-family="Arial" font-size="12" fill="#374151">0.6</text>
<line x1="82" y1="131.6" x2="740" y2="131.6" stroke="#e5e7eb" stroke-width="1"/>
<text x="72" y="135.6" text-anchor="end" font-family="Arial" font-size="12" fill="#374151">0.8</text>
<line x1="82" y1="42.0" x2="740" y2="42.0" stroke="#e5e7eb" stroke-width="1"/>
<text x="72" y="46.0" text-anchor="end" font-family="Arial" font-size="12" fill="#374151">1.0</text>
<line x1="82.0" y1="42" x2="82.0" y2="490" stroke="#f3f4f6" stroke-width="1"/>
<text x="82.0" y="512" text-anchor="middle" font-family="Arial" font-size="12" fill="#374151">1</text>
<line x1="155.1" y1="42" x2="155.1" y2="490" stroke="#f3f4f6" stroke-width="1"/>
<text x="155.1" y="512" text-anchor="middle" font-family="Arial" font-size="12" fill="#374151">8</text>
<line x1="238.7" y1="42" x2="238.7" y2="490" stroke="#f3f4f6" stroke-width="1"/>
<text x="238.7" y="512" text-anchor="middle" font-family="Arial" font-size="12" fill="#374151">16</text>
<line x1="405.8" y1="42" x2="405.8" y2="490" stroke="#f3f4f6" stroke-width="1"/>
<text x="405.8" y="512" text-anchor="middle" font-family="Arial" font-size="12" fill="#374151">32</text>
<line x1="572.9" y1="42" x2="572.9" y2="490" stroke="#f3f4f6" stroke-width="1"/>
<text x="572.9" y="512" text-anchor="middle" font-family="Arial" font-size="12" fill="#374151">48</text>
<line x1="740.0" y1="42" x2="740.0" y2="490" stroke="#f3f4f6" stroke-width="1"/>
<text x="740.0" y="512" text-anchor="middle" font-family="Arial" font-size="12" fill="#374151">64</text>
<line x1="82" y1="490" x2="740" y2="490" stroke="#111827" stroke-width="1.2"/>
<line x1="82" y1="42" x2="82" y2="490" stroke="#111827" stroke-width="1.2"/>
<text x="411.0" y="542" text-anchor="middle" font-family="Arial" font-size="13" fill="#111827">rank kept</text>
<text x="18" y="266.0" transform="rotate(-90 18,266.0)" text-anchor="middle" font-family="Arial" font-size="13" fill="#111827">cumulative squared energy</text>
<line x1="238.7" y1="42" x2="238.7" y2="490" stroke="#9ca3af" stroke-width="1.2" stroke-dasharray="5,5"/>
<text x="244.7" y="60" font-family="Arial" font-size="12" fill="#4b5563">rank 16</text>
<polyline fill="none" stroke="#111827" stroke-width="3" points="82.0,321.4 92.4,281.8 102.9,257.6 113.3,239.6 123.8,224.9 134.2,212.6 144.7,201.9 155.1,192.3 165.6,183.8 176.0,175.9 186.4,168.8 196.9,162.2 207.3,156.1 217.8,150.4 228.2,145.1 238.7,140.0 249.1,135.3 259.6,130.7 270.0,126.4 280.4,122.4 290.9,118.5 301.3,114.8 311.8,111.3 322.2,107.9 332.7,104.7 343.1,101.6 353.6,98.6 364.0,95.8 374.4,93.0 384.9,90.4 395.3,87.9 405.8,85.5 416.2,83.1 426.7,80.9 437.1,78.7 447.6,76.6 458.0,74.6 468.4,72.7 478.9,70.8 489.3,69.0 499.8,67.3 510.2,65.6 520.7,64.0 531.1,62.5 541.6,61.0 552.0,59.5 562.4,58.2 572.9,56.8 583.3,55.5 593.8,54.3 604.2,53.1 614.7,52.0 625.1,50.9 635.6,49.9 646.0,48.9 656.4,47.9 666.9,47.0 677.3,46.1 687.8,45.3 698.2,44.5 708.7,43.8 719.1,43.2 729.6,42.5 740.0,42.0"/>
<polyline fill="none" stroke="#2563eb" stroke-width="1.8" opacity="0.88" points="82.0,315.6 92.4,272.4 102.9,244.7 113.3,224.8 123.8,208.4 134.2,194.7 144.7,183.2 155.1,173.0 165.6,164.0 176.0,156.0 186.4,148.7 196.9,142.1 207.3,136.0 217.8,130.4 228.2,125.2 238.7,120.4 249.1,115.9 259.6,111.7 270.0,107.7 280.4,104.0 290.9,100.5 301.3,97.2 311.8,94.1 322.2,91.1 332.7,88.4 343.1,85.8 353.6,83.3 364.0,80.9 374.4,78.6 384.9,76.5 395.3,74.5 405.8,72.5 416.2,70.7 426.7,68.9 437.1,67.2 447.6,65.6 458.0,64.1 468.4,62.7 478.9,61.3 489.3,59.9 499.8,58.7 510.2,57.5 520.7,56.3 531.1,55.3 541.6,54.2 552.0,53.2 562.4,52.3 572.9,51.4 583.3,50.5 593.8,49.7 604.2,48.9 614.7,48.1 625.1,47.4 635.6,46.8 646.0,46.1 656.4,45.5 666.9,45.0 677.3,44.4 687.8,43.9 698.2,43.5 708.7,43.0 719.1,42.7 729.6,42.3 740.0,42.0"/>
<polyline fill="none" stroke="#0891b2" stroke-width="1.8" opacity="0.88" points="82.0,324.6 92.4,266.4 102.9,232.3 113.3,208.4 123.8,191.4 134.2,177.9 144.7,166.6 155.1,156.7 165.6,148.3 176.0,140.6 186.4,133.9 196.9,127.9 207.3,122.4 217.8,117.5 228.2,112.9 238.7,108.6 249.1,104.7 259.6,101.0 270.0,97.6 280.4,94.4 290.9,91.4 301.3,88.6 311.8,85.9 322.2,83.5 332.7,81.1 343.1,78.9 353.6,76.8 364.0,74.8 374.4,72.9 384.9,71.1 395.3,69.4 405.8,67.8 416.2,66.3 426.7,64.8 437.1,63.4 447.6,62.0 458.0,60.7 468.4,59.5 478.9,58.3 489.3,57.2 499.8,56.2 510.2,55.2 520.7,54.2 531.1,53.3 541.6,52.4 552.0,51.6 562.4,50.8 572.9,50.0 583.3,49.3 593.8,48.6 604.2,47.9 614.7,47.3 625.1,46.7 635.6,46.1 646.0,45.6 656.4,45.1 666.9,44.6 677.3,44.1 687.8,43.7 698.2,43.3 708.7,42.9 719.1,42.6 729.6,42.3 740.0,42.0"/>
<polyline fill="none" stroke="#059669" stroke-width="1.8" opacity="0.88" points="82.0,245.9 92.4,178.3 102.9,149.7 113.3,135.1 123.8,124.8 134.2,116.9 144.7,110.3 155.1,104.8 165.6,100.0 176.0,95.7 186.4,91.9 196.9,88.5 207.3,85.4 217.8,82.6 228.2,80.0 238.7,77.6 249.1,75.4 259.6,73.4 270.0,71.4 280.4,69.6 290.9,68.0 301.3,66.4 311.8,64.9 322.2,63.5 332.7,62.2 343.1,61.0 353.6,59.8 364.0,58.7 374.4,57.7 384.9,56.7 395.3,55.8 405.8,54.9 416.2,54.1 426.7,53.3 437.1,52.6 447.6,51.8 458.0,51.2 468.4,50.5 478.9,49.9 489.3,49.4 499.8,48.8 510.2,48.3 520.7,47.8 531.1,47.3 541.6,46.9 552.0,46.5 562.4,46.1 572.9,45.7 583.3,45.3 593.8,45.0 604.2,44.7 614.7,44.4 625.1,44.1 635.6,43.8 646.0,43.6 656.4,43.3 666.9,43.1 677.3,42.9 687.8,42.7 698.2,42.5 708.7,42.4 719.1,42.2 729.6,42.1 740.0,42.0"/>
<polyline fill="none" stroke="#7c3aed" stroke-width="1.8" opacity="0.88" points="82.0,339.8 92.4,297.5 102.9,270.9 113.3,250.1 123.8,233.0 134.2,218.7 144.7,206.9 155.1,196.6 165.6,187.3 176.0,178.8 186.4,170.9 196.9,163.7 207.3,157.1 217.8,151.0 228.2,145.3 238.7,139.9 249.1,134.8 259.6,130.0 270.0,125.4 280.4,121.2 290.9,117.1 301.3,113.3 311.8,109.6 322.2,106.1 332.7,102.8 343.1,99.7 353.6,96.7 364.0,93.8 374.4,91.1 384.9,88.4 395.3,85.9 405.8,83.5 416.2,81.2 426.7,78.9 437.1,76.8 447.6,74.7 458.0,72.8 468.4,70.9 478.9,69.1 489.3,67.3 499.8,65.6 510.2,64.0 520.7,62.5 531.1,61.0 541.6,59.6 552.0,58.3 562.4,57.0 572.9,55.7 583.3,54.5 593.8,53.3 604.2,52.2 614.7,51.2 625.1,50.2 635.6,49.2 646.0,48.3 656.4,47.4 666.9,46.6 677.3,45.8 687.8,45.0 698.2,44.3 708.7,43.7 719.1,43.1 729.6,42.5 740.0,42.0"/>
<polyline fill="none" stroke="#dc2626" stroke-width="1.8" opacity="0.88" points="82.0,336.7 92.4,301.7 102.9,279.1 113.3,261.3 123.8,246.6 134.2,234.0 144.7,222.9 155.1,212.9 165.6,203.8 176.0,195.4 186.4,187.8 196.9,180.7 207.3,174.0 217.8,167.8 228.2,161.9 238.7,156.4 249.1,151.1 259.6,146.0 270.0,141.2 280.4,136.7 290.9,132.3 301.3,128.2 311.8,124.2 322.2,120.3 332.7,116.7 343.1,113.1 353.6,109.7 364.0,106.4 374.4,103.3 384.9,100.2 395.3,97.3 405.8,94.4 416.2,91.7 426.7,89.1 437.1,86.5 447.6,84.1 458.0,81.7 468.4,79.4 478.9,77.1 489.3,75.0 499.8,72.9 510.2,70.9 520.7,69.0 531.1,67.1 541.6,65.3 552.0,63.5 562.4,61.8 572.9,60.2 583.3,58.7 593.8,57.2 604.2,55.7 614.7,54.3 625.1,53.0 635.6,51.7 646.0,50.5 656.4,49.3 666.9,48.2 677.3,47.1 687.8,46.1 698.2,45.2 708.7,44.3 719.1,43.4 729.6,42.7 740.0,42.0"/>
<polyline fill="none" stroke="#ea580c" stroke-width="1.8" opacity="0.88" points="82.0,318.2 92.4,281.7 102.9,259.4 113.3,242.8 123.8,228.9 134.2,217.1 144.7,206.6 155.1,197.3 165.6,188.8 176.0,180.9 186.4,173.8 196.9,167.2 207.3,161.0 217.8,155.3 228.2,149.8 238.7,144.6 249.1,139.7 259.6,135.1 270.0,130.7 280.4,126.5 290.9,122.4 301.3,118.6 311.8,114.9 322.2,111.4 332.7,108.0 343.1,104.8 353.6,101.7 364.0,98.7 374.4,95.8 384.9,93.0 395.3,90.4 405.8,87.8 416.2,85.4 426.7,83.0 437.1,80.7 447.6,78.5 458.0,76.4 468.4,74.4 478.9,72.4 489.3,70.5 499.8,68.7 510.2,66.9 520.7,65.2 531.1,63.6 541.6,62.0 552.0,60.5 562.4,59.0 572.9,57.6 583.3,56.3 593.8,55.0 604.2,53.7 614.7,52.5 625.1,51.4 635.6,50.3 646.0,49.2 656.4,48.2 666.9,47.2 677.3,46.3 687.8,45.5 698.2,44.6 708.7,43.9 719.1,43.2 729.6,42.6 740.0,42.0"/>
<polyline fill="none" stroke="#ca8a04" stroke-width="1.8" opacity="0.88" points="82.0,311.1 92.4,277.0 102.9,254.7 113.3,237.1 123.8,223.0 134.2,211.1 144.7,200.6 155.1,191.4 165.6,183.2 176.0,175.8 186.4,169.1 196.9,162.8 207.3,157.1 217.8,151.7 228.2,146.6 238.7,141.8 249.1,137.3 259.6,133.0 270.0,128.8 280.4,124.9 290.9,121.2 301.3,117.7 311.8,114.2 322.2,111.0 332.7,107.8 343.1,104.8 353.6,101.8 364.0,99.0 374.4,96.3 384.9,93.7 395.3,91.2 405.8,88.8 416.2,86.4 426.7,84.1 437.1,81.9 447.6,79.8 458.0,77.7 468.4,75.7 478.9,73.8 489.3,71.9 499.8,70.1 510.2,68.4 520.7,66.7 531.1,65.1 541.6,63.5 552.0,61.9 562.4,60.5 572.9,59.0 583.3,57.6 593.8,56.3 604.2,55.0 614.7,53.7 625.1,52.5 635.6,51.3 646.0,50.2 656.4,49.1 666.9,48.1 677.3,47.1 687.8,46.1 698.2,45.2 708.7,44.3 719.1,43.5 729.6,42.7 740.0,42.0"/>
<line x1="762" y1="64" x2="788" y2="64" stroke="#111827" stroke-width="3"/>
<text x="796" y="68" font-family="Arial" font-size="12" fill="#111827">global</text>
<line x1="762" y1="88" x2="788" y2="88" stroke="#2563eb" stroke-width="2"/>
<text x="796" y="92" font-family="Arial" font-size="12" fill="#111827">attn_q_proj</text>
<line x1="762" y1="112" x2="788" y2="112" stroke="#0891b2" stroke-width="2"/>
<text x="796" y="116" font-family="Arial" font-size="12" fill="#111827">attn_k_proj</text>
<line x1="762" y1="136" x2="788" y2="136" stroke="#059669" stroke-width="2"/>
<text x="796" y="140" font-family="Arial" font-size="12" fill="#111827">attn_v_proj</text>
<line x1="762" y1="160" x2="788" y2="160" stroke="#7c3aed" stroke-width="2"/>
<text x="796" y="164" font-family="Arial" font-size="12" fill="#111827">attn_o_proj</text>
<line x1="762" y1="184" x2="788" y2="184" stroke="#dc2626" stroke-width="2"/>
<text x="796" y="188" font-family="Arial" font-size="12" fill="#111827">mlp_gate_proj</text>
<line x1="762" y1="208" x2="788" y2="208" stroke="#ea580c" stroke-width="2"/>
<text x="796" y="212" font-family="Arial" font-size="12" fill="#111827">mlp_up_proj</text>
<line x1="762" y1="232" x2="788" y2="232" stroke="#ca8a04" stroke-width="2"/>
<text x="796" y="236" font-family="Arial" font-size="12" fill="#111827">mlp_down_proj</text>
</svg>